<mxfile modified="2022-06-10T13:39:28.733Z" host="app.diagrams.net" agent="5.0 (Windows)" etag="NBjuyjlP04R2eMTW2Q8_" version="19.0.3" type="github">
  <diagram id="Ht1M8jgEwFfnCIfOTk4-" name="Page-1">
    <mxGraphModel dx="3407" dy="1065" grid="1" gridSize="10" guides="1" tooltips="1" connect="1" arrows="1" fold="1" page="1" pageScale="1" pageWidth="1169" pageHeight="827" math="0" shadow="0">
      <root>
        <mxCell id="0" />
        <mxCell id="1" parent="0" />
        <mxCell id="-QjtrjUzRDEMRZ5MF8oH-47" value="FastAPI AWS production&amp;nbsp; deployment - No FE" style="text;html=1;resizable=0;points=[];autosize=1;align=left;verticalAlign=top;spacingTop=-4;fontSize=30;fontStyle=1" parent="1" vertex="1">
          <mxGeometry x="-697.5" y="189" width="670" height="40" as="geometry" />
        </mxCell>
        <mxCell id="SCVMTBWpLvtzJIhz15lM-1" value="" style="line;strokeWidth=2;html=1;fontSize=14;" parent="1" vertex="1">
          <mxGeometry x="-697.5" y="248.5" width="1060" height="10" as="geometry" />
        </mxCell>
        <mxCell id="7OVz4w7n9kzEPWy-4BBC-3" value="" style="rounded=0;whiteSpace=wrap;html=1;fillColor=#EAEDED;fontSize=22;fontColor=#FFFFFF;strokeColor=none;labelBackgroundColor=none;" parent="1" vertex="1">
          <mxGeometry x="401" y="160" width="539" height="1049" as="geometry" />
        </mxCell>
        <mxCell id="7OVz4w7n9kzEPWy-4BBC-4" value="1" style="rounded=1;whiteSpace=wrap;html=1;fillColor=#007CBD;strokeColor=none;fontColor=#FFFFFF;fontStyle=1;fontSize=22;labelBackgroundColor=none;" parent="1" vertex="1">
          <mxGeometry x="419" y="172" width="40" height="38" as="geometry" />
        </mxCell>
        <mxCell id="7OVz4w7n9kzEPWy-4BBC-5" value="2" style="rounded=1;whiteSpace=wrap;html=1;fillColor=#007CBD;strokeColor=none;fontColor=#FFFFFF;fontStyle=1;fontSize=22;labelBackgroundColor=none;" parent="1" vertex="1">
          <mxGeometry x="417.5" y="294" width="40" height="38" as="geometry" />
        </mxCell>
        <mxCell id="7OVz4w7n9kzEPWy-4BBC-6" value="3" style="rounded=1;whiteSpace=wrap;html=1;fillColor=#007CBD;strokeColor=none;fontColor=#FFFFFF;fontStyle=1;fontSize=22;labelBackgroundColor=none;" parent="1" vertex="1">
          <mxGeometry x="417.5" y="414" width="40" height="38" as="geometry" />
        </mxCell>
        <mxCell id="7OVz4w7n9kzEPWy-4BBC-7" value="4" style="rounded=1;whiteSpace=wrap;html=1;fillColor=#007CBD;strokeColor=none;fontColor=#FFFFFF;fontStyle=1;fontSize=22;labelBackgroundColor=none;" parent="1" vertex="1">
          <mxGeometry x="417.5" y="528" width="40" height="38" as="geometry" />
        </mxCell>
        <mxCell id="7OVz4w7n9kzEPWy-4BBC-8" value="5" style="rounded=1;whiteSpace=wrap;html=1;fillColor=#007CBD;strokeColor=none;fontColor=#FFFFFF;fontStyle=1;fontSize=22;labelBackgroundColor=none;" parent="1" vertex="1">
          <mxGeometry x="419" y="645" width="40" height="38" as="geometry" />
        </mxCell>
        <mxCell id="7OVz4w7n9kzEPWy-4BBC-9" value="6" style="rounded=1;whiteSpace=wrap;html=1;fillColor=#007CBD;strokeColor=none;fontColor=#FFFFFF;fontStyle=1;fontSize=22;labelBackgroundColor=none;" parent="1" vertex="1">
          <mxGeometry x="420" y="760" width="40" height="38" as="geometry" />
        </mxCell>
        <mxCell id="7OVz4w7n9kzEPWy-4BBC-10" value="7" style="rounded=1;whiteSpace=wrap;html=1;fillColor=#007CBD;strokeColor=none;fontColor=#FFFFFF;fontStyle=1;fontSize=22;labelBackgroundColor=none;" parent="1" vertex="1">
          <mxGeometry x="419.5" y="876" width="40" height="38" as="geometry" />
        </mxCell>
        <mxCell id="7OVz4w7n9kzEPWy-4BBC-11" value="8" style="rounded=1;whiteSpace=wrap;html=1;fillColor=#007CBD;strokeColor=none;fontColor=#FFFFFF;fontStyle=1;fontSize=22;labelBackgroundColor=none;" parent="1" vertex="1">
          <mxGeometry x="420" y="994" width="40" height="38" as="geometry" />
        </mxCell>
        <mxCell id="7OVz4w7n9kzEPWy-4BBC-13" value="As the deployment considers multi region, a transit gateway is suggested to ensure inter-VPC connectivity, as well as connectivity to the VPN gateway." style="text;html=1;align=left;verticalAlign=top;spacingTop=-4;fontSize=14;labelBackgroundColor=none;whiteSpace=wrap;" parent="1" vertex="1">
          <mxGeometry x="470.5" y="171.5" width="449" height="118" as="geometry" />
        </mxCell>
        <mxCell id="7OVz4w7n9kzEPWy-4BBC-14" value="A VPN gateway is required, can have multiple if we want redundancy, which will connect site-to-site to the office building. The gateway can be deployed on a single region and then leverage on the transit gateway routing table to distribute traffic across the different VPCs in the different regions." style="text;html=1;align=left;verticalAlign=top;spacingTop=-4;fontSize=14;labelBackgroundColor=none;whiteSpace=wrap;" parent="1" vertex="1">
          <mxGeometry x="469.5" y="294.5" width="450" height="115" as="geometry" />
        </mxCell>
        <mxCell id="7OVz4w7n9kzEPWy-4BBC-15" value="A Route 53 private zone is desired in case we want to use a private DNS to hit the private LB, a Route 53 resolver connected to local DNS servers might be needed." style="text;html=1;align=left;verticalAlign=top;spacingTop=-4;fontSize=14;labelBackgroundColor=none;whiteSpace=wrap;" parent="1" vertex="1">
          <mxGeometry x="469.5" y="412.5" width="450" height="117" as="geometry" />
        </mxCell>
        <mxCell id="7OVz4w7n9kzEPWy-4BBC-16" value="An internal Load balancer is suggested to ensure distribution across the different API servers hosted by containers, the LB will have a DNS record from the zone specified in entry #3." style="text;html=1;align=left;verticalAlign=top;spacingTop=-4;fontSize=14;labelBackgroundColor=none;whiteSpace=wrap;" parent="1" vertex="1">
          <mxGeometry x="469.5" y="528.5" width="450" height="121" as="geometry" />
        </mxCell>
        <mxCell id="7OVz4w7n9kzEPWy-4BBC-17" value="ECS containers hosting the FastAPI server running on FARGATE, based on the fact that the API server is stateless we could use FARGATE_SPOT for the sake of reducing operational costs." style="text;html=1;align=left;verticalAlign=top;spacingTop=-4;fontSize=14;labelBackgroundColor=none;whiteSpace=wrap;" parent="1" vertex="1">
          <mxGeometry x="470.5" y="645.5" width="449" height="114" as="geometry" />
        </mxCell>
        <mxCell id="7OVz4w7n9kzEPWy-4BBC-18" value="Multi-AZ RDS instance with a Read Replica in another region to prevent unncesary traffic for read operations as well as reducing overhead on master server." style="text;html=1;align=left;verticalAlign=top;spacingTop=-4;fontSize=14;labelBackgroundColor=none;whiteSpace=wrap;" parent="1" vertex="1">
          <mxGeometry x="470.5" y="761.5" width="450" height="118" as="geometry" />
        </mxCell>
        <mxCell id="7OVz4w7n9kzEPWy-4BBC-19" value="One Redis cluster per region with multi-az shard distribution for availability purposes." style="text;html=1;align=left;verticalAlign=top;spacingTop=-4;fontSize=14;labelBackgroundColor=none;whiteSpace=wrap;" parent="1" vertex="1">
          <mxGeometry x="470.5" y="876.5" width="449" height="113" as="geometry" />
        </mxCell>
        <mxCell id="7OVz4w7n9kzEPWy-4BBC-20" value="ECR repository to store FastAPI container images." style="text;html=1;align=left;verticalAlign=top;spacingTop=-4;fontSize=14;labelBackgroundColor=none;whiteSpace=wrap;" parent="1" vertex="1">
          <mxGeometry x="470.5" y="995.5" width="449" height="124" as="geometry" />
        </mxCell>
        <mxCell id="7OVz4w7n9kzEPWy-4BBC-21" value="&lt;div&gt;Assumptions:&lt;/div&gt;&lt;div&gt;&lt;ul&gt;&lt;li&gt;Back-up is not taken into account, it is suggested to use RDS snapshots and perform restoration drills every 3 months.&lt;/li&gt;&lt;li&gt;Monitoring is not taken into account, Cloudwatch can be used and container insights is suggested for ECS.&lt;/li&gt;&lt;li&gt;IaC is not being considered although strongly suggested, if to be used relevant IAM resources must be placed.&lt;br&gt;&lt;/li&gt;&lt;/ul&gt;&lt;/div&gt;" style="text;html=1;align=left;verticalAlign=top;spacingTop=-4;fontSize=14;labelBackgroundColor=none;whiteSpace=wrap;" parent="1" vertex="1">
          <mxGeometry x="420" y="1059" width="449" height="115" as="geometry" />
        </mxCell>
        <mxCell id="X8f6CpPXcMIXnC8pIXMU-3" value="AWS Cloud" style="points=[[0,0],[0.25,0],[0.5,0],[0.75,0],[1,0],[1,0.25],[1,0.5],[1,0.75],[1,1],[0.75,1],[0.5,1],[0.25,1],[0,1],[0,0.75],[0,0.5],[0,0.25]];outlineConnect=0;gradientColor=none;html=1;whiteSpace=wrap;fontSize=12;fontStyle=0;container=1;pointerEvents=0;collapsible=0;recursiveResize=0;shape=mxgraph.aws4.group;grIcon=mxgraph.aws4.group_aws_cloud;strokeColor=#232F3E;fillColor=none;verticalAlign=bottom;align=center;spacingLeft=30;fontColor=#232F3E;dashed=0;labelPosition=center;verticalLabelPosition=top;" parent="1" vertex="1">
          <mxGeometry x="-694" y="299" width="1057" height="1140" as="geometry" />
        </mxCell>
        <mxCell id="X8f6CpPXcMIXnC8pIXMU-4" value="eu-west-1" style="points=[[0,0],[0.25,0],[0.5,0],[0.75,0],[1,0],[1,0.25],[1,0.5],[1,0.75],[1,1],[0.75,1],[0.5,1],[0.25,1],[0,1],[0,0.75],[0,0.5],[0,0.25]];outlineConnect=0;gradientColor=none;html=1;whiteSpace=wrap;fontSize=12;fontStyle=0;container=1;pointerEvents=0;collapsible=0;recursiveResize=0;shape=mxgraph.aws4.group;grIcon=mxgraph.aws4.group_region;strokeColor=#147EBA;fillColor=none;verticalAlign=top;align=left;spacingLeft=30;fontColor=#147EBA;dashed=1;" parent="X8f6CpPXcMIXnC8pIXMU-3" vertex="1">
          <mxGeometry x="37" y="30" width="413" height="1090" as="geometry" />
        </mxCell>
        <mxCell id="X8f6CpPXcMIXnC8pIXMU-10" value="AZ eu-west-1b" style="fillColor=none;strokeColor=#147EBA;dashed=1;verticalAlign=top;fontStyle=0;fontColor=#147EBA;" parent="X8f6CpPXcMIXnC8pIXMU-4" vertex="1">
          <mxGeometry x="220" y="170" width="170" height="880" as="geometry" />
        </mxCell>
        <mxCell id="X8f6CpPXcMIXnC8pIXMU-25" value="Private subnet" style="points=[[0,0],[0.25,0],[0.5,0],[0.75,0],[1,0],[1,0.25],[1,0.5],[1,0.75],[1,1],[0.75,1],[0.5,1],[0.25,1],[0,1],[0,0.75],[0,0.5],[0,0.25]];outlineConnect=0;gradientColor=none;html=1;whiteSpace=wrap;fontSize=12;fontStyle=0;container=1;pointerEvents=0;collapsible=0;recursiveResize=0;shape=mxgraph.aws4.group;grIcon=mxgraph.aws4.group_security_group;grStroke=0;strokeColor=#147EBA;fillColor=#E6F2F8;verticalAlign=top;align=left;spacingLeft=30;fontColor=#147EBA;dashed=0;" parent="X8f6CpPXcMIXnC8pIXMU-4" vertex="1">
          <mxGeometry x="230" y="200" width="150" height="400" as="geometry" />
        </mxCell>
        <mxCell id="X8f6CpPXcMIXnC8pIXMU-14" value="VPC" style="points=[[0,0],[0.25,0],[0.5,0],[0.75,0],[1,0],[1,0.25],[1,0.5],[1,0.75],[1,1],[0.75,1],[0.5,1],[0.25,1],[0,1],[0,0.75],[0,0.5],[0,0.25]];outlineConnect=0;gradientColor=none;html=1;whiteSpace=wrap;fontSize=12;fontStyle=0;container=1;pointerEvents=0;collapsible=0;recursiveResize=0;shape=mxgraph.aws4.group;grIcon=mxgraph.aws4.group_vpc;strokeColor=#248814;fillColor=none;verticalAlign=top;align=left;spacingLeft=30;fontColor=#AAB7B8;dashed=0;" parent="X8f6CpPXcMIXnC8pIXMU-4" vertex="1">
          <mxGeometry x="20" y="130" width="380" height="940" as="geometry" />
        </mxCell>
        <mxCell id="X8f6CpPXcMIXnC8pIXMU-9" value="AZ eu-west-1a" style="fillColor=none;strokeColor=#147EBA;dashed=1;verticalAlign=top;fontStyle=0;fontColor=#147EBA;" parent="X8f6CpPXcMIXnC8pIXMU-14" vertex="1">
          <mxGeometry x="17" y="40.5" width="170" height="879.5" as="geometry" />
        </mxCell>
        <mxCell id="X8f6CpPXcMIXnC8pIXMU-6" value="Private subnet" style="points=[[0,0],[0.25,0],[0.5,0],[0.75,0],[1,0],[1,0.25],[1,0.5],[1,0.75],[1,1],[0.75,1],[0.5,1],[0.25,1],[0,1],[0,0.75],[0,0.5],[0,0.25]];outlineConnect=0;gradientColor=none;html=1;whiteSpace=wrap;fontSize=12;fontStyle=0;container=1;pointerEvents=0;collapsible=0;recursiveResize=0;shape=mxgraph.aws4.group;grIcon=mxgraph.aws4.group_security_group;grStroke=0;strokeColor=#147EBA;fillColor=#E6F2F8;verticalAlign=top;align=left;spacingLeft=30;fontColor=#147EBA;dashed=0;" parent="X8f6CpPXcMIXnC8pIXMU-14" vertex="1">
          <mxGeometry x="27" y="70" width="163" height="400" as="geometry" />
        </mxCell>
        <mxCell id="X8f6CpPXcMIXnC8pIXMU-40" value="RDS Master" style="outlineConnect=0;dashed=0;verticalLabelPosition=bottom;verticalAlign=top;align=center;html=1;shape=mxgraph.aws3.rds_db_instance;fillColor=#2E73B8;gradientColor=none;" parent="X8f6CpPXcMIXnC8pIXMU-14" vertex="1">
          <mxGeometry x="77.25" y="541.75" width="49.5" height="66" as="geometry" />
        </mxCell>
        <mxCell id="X8f6CpPXcMIXnC8pIXMU-45" value="Redis cluster&lt;br&gt;Multi-AZ shard distribution" style="sketch=0;outlineConnect=0;fontColor=#232F3E;gradientColor=none;fillColor=#2E27AD;strokeColor=none;dashed=0;verticalLabelPosition=bottom;verticalAlign=top;align=center;html=1;fontSize=12;fontStyle=0;aspect=fixed;pointerEvents=1;shape=mxgraph.aws4.elasticache_for_redis;" parent="X8f6CpPXcMIXnC8pIXMU-14" vertex="1">
          <mxGeometry x="64.13" y="716.25" width="75.74" height="67" as="geometry" />
        </mxCell>
        <mxCell id="X8f6CpPXcMIXnC8pIXMU-88" value="" style="rounded=1;arcSize=10;dashed=1;strokeColor=#ff0000;fillColor=none;gradientColor=none;dashPattern=8 4;strokeWidth=2;" parent="X8f6CpPXcMIXnC8pIXMU-14" vertex="1">
          <mxGeometry x="23.5" y="670" width="333" height="159.5" as="geometry" />
        </mxCell>
        <mxCell id="X8f6CpPXcMIXnC8pIXMU-89" value="sg-redis-in - Allow inbound from VPC range to 6379 TCP&lt;br&gt;Deny egress to 0.0.0.0/0" style="text;html=1;strokeColor=none;fillColor=none;align=center;verticalAlign=middle;whiteSpace=wrap;rounded=0;" parent="X8f6CpPXcMIXnC8pIXMU-14" vertex="1">
          <mxGeometry x="27" y="680" width="323" height="30" as="geometry" />
        </mxCell>
        <mxCell id="X8f6CpPXcMIXnC8pIXMU-43" value="ECS task definition&lt;br&gt;Running FastAPI" style="sketch=0;outlineConnect=0;fontColor=#232F3E;gradientColor=none;fillColor=#D45B07;strokeColor=none;dashed=0;verticalLabelPosition=bottom;verticalAlign=top;align=center;html=1;fontSize=12;fontStyle=0;aspect=fixed;pointerEvents=1;shape=mxgraph.aws4.container_2;" parent="X8f6CpPXcMIXnC8pIXMU-14" vertex="1">
          <mxGeometry x="84.5" y="390" width="48" height="31" as="geometry" />
        </mxCell>
        <mxCell id="X8f6CpPXcMIXnC8pIXMU-100" value="" style="rounded=1;arcSize=10;dashed=1;strokeColor=#ff0000;fillColor=none;gradientColor=none;dashPattern=8 4;strokeWidth=2;" parent="X8f6CpPXcMIXnC8pIXMU-14" vertex="1">
          <mxGeometry x="28.5" y="500" width="323" height="149.5" as="geometry" />
        </mxCell>
        <mxCell id="X8f6CpPXcMIXnC8pIXMU-102" value="sg-rds-in - Allow inbound from all region&#39;s VPC in port 5432&lt;br&gt;Deny egress to 0.0.0.0/0" style="text;html=1;strokeColor=none;fillColor=none;align=center;verticalAlign=middle;whiteSpace=wrap;rounded=0;" parent="X8f6CpPXcMIXnC8pIXMU-14" vertex="1">
          <mxGeometry x="28.5" y="510" width="323" height="30" as="geometry" />
        </mxCell>
        <mxCell id="X8f6CpPXcMIXnC8pIXMU-104" value="" style="rounded=1;arcSize=10;dashed=1;strokeColor=#ff0000;fillColor=none;gradientColor=none;dashPattern=8 4;strokeWidth=2;" parent="X8f6CpPXcMIXnC8pIXMU-14" vertex="1">
          <mxGeometry x="28.5" y="380" width="323" height="80" as="geometry" />
        </mxCell>
        <mxCell id="X8f6CpPXcMIXnC8pIXMU-85" value="ECS task definition&lt;br&gt;Running FastAPI&lt;br&gt;&lt;br&gt;" style="sketch=0;outlineConnect=0;fontColor=#232F3E;gradientColor=none;fillColor=#D45B07;strokeColor=none;dashed=0;verticalLabelPosition=bottom;verticalAlign=top;align=center;html=1;fontSize=12;fontStyle=0;aspect=fixed;pointerEvents=1;shape=mxgraph.aws4.container_2;" parent="X8f6CpPXcMIXnC8pIXMU-14" vertex="1">
          <mxGeometry x="250.5" y="390" width="48" height="31" as="geometry" />
        </mxCell>
        <mxCell id="X8f6CpPXcMIXnC8pIXMU-105" value="sg-api-in - Allow inbound from private subnets in port range 5000-5100 TCP&lt;br&gt;Deny egress to 0.0.0.0/0" style="text;html=1;strokeColor=none;fillColor=none;align=center;verticalAlign=middle;whiteSpace=wrap;rounded=0;" parent="X8f6CpPXcMIXnC8pIXMU-14" vertex="1">
          <mxGeometry x="33.5" y="340" width="323" height="30" as="geometry" />
        </mxCell>
        <mxCell id="X8f6CpPXcMIXnC8pIXMU-170" value="5" style="rounded=1;whiteSpace=wrap;html=1;fillColor=#007CBD;strokeColor=none;fontColor=#FFFFFF;fontStyle=1;fontSize=22;labelBackgroundColor=none;" parent="X8f6CpPXcMIXnC8pIXMU-14" vertex="1">
          <mxGeometry x="168.5" y="390" width="40" height="38" as="geometry" />
        </mxCell>
        <mxCell id="X8f6CpPXcMIXnC8pIXMU-173" value="6" style="rounded=1;whiteSpace=wrap;html=1;fillColor=#007CBD;strokeColor=none;fontColor=#FFFFFF;fontStyle=1;fontSize=22;labelBackgroundColor=none;" parent="X8f6CpPXcMIXnC8pIXMU-14" vertex="1">
          <mxGeometry x="168.5" y="555.75" width="40" height="38" as="geometry" />
        </mxCell>
        <mxCell id="X8f6CpPXcMIXnC8pIXMU-175" value="7" style="rounded=1;whiteSpace=wrap;html=1;fillColor=#007CBD;strokeColor=none;fontColor=#FFFFFF;fontStyle=1;fontSize=22;labelBackgroundColor=none;" parent="X8f6CpPXcMIXnC8pIXMU-14" vertex="1">
          <mxGeometry x="167" y="716.25" width="40" height="38" as="geometry" />
        </mxCell>
        <mxCell id="X8f6CpPXcMIXnC8pIXMU-8" value="ECR" style="sketch=0;points=[[0,0,0],[0.25,0,0],[0.5,0,0],[0.75,0,0],[1,0,0],[0,1,0],[0.25,1,0],[0.5,1,0],[0.75,1,0],[1,1,0],[0,0.25,0],[0,0.5,0],[0,0.75,0],[1,0.25,0],[1,0.5,0],[1,0.75,0]];outlineConnect=0;fontColor=#232F3E;gradientColor=#F78E04;gradientDirection=north;fillColor=#D05C17;strokeColor=#ffffff;dashed=0;verticalLabelPosition=bottom;verticalAlign=top;align=center;html=1;fontSize=12;fontStyle=0;aspect=fixed;shape=mxgraph.aws4.resourceIcon;resIcon=mxgraph.aws4.ecr;" parent="X8f6CpPXcMIXnC8pIXMU-4" vertex="1">
          <mxGeometry x="312" y="10" width="78" height="78" as="geometry" />
        </mxCell>
        <mxCell id="X8f6CpPXcMIXnC8pIXMU-41" value="RDS Stand-by&lt;br&gt;Multi-AZ" style="outlineConnect=0;dashed=0;verticalLabelPosition=bottom;verticalAlign=top;align=center;html=1;shape=mxgraph.aws3.rds_db_instance_standby_multi_az;fillColor=#2E73B8;gradientColor=none;" parent="X8f6CpPXcMIXnC8pIXMU-4" vertex="1">
          <mxGeometry x="278.75" y="670" width="49.5" height="66" as="geometry" />
        </mxCell>
        <mxCell id="X8f6CpPXcMIXnC8pIXMU-46" value="Redis cluster&lt;br&gt;Multi-AZ shard distribution" style="sketch=0;outlineConnect=0;fontColor=#232F3E;gradientColor=none;fillColor=#2E27AD;strokeColor=none;dashed=0;verticalLabelPosition=bottom;verticalAlign=top;align=center;html=1;fontSize=12;fontStyle=0;aspect=fixed;pointerEvents=1;shape=mxgraph.aws4.elasticache_for_redis;" parent="X8f6CpPXcMIXnC8pIXMU-4" vertex="1">
          <mxGeometry x="250.25" y="840" width="78" height="69" as="geometry" />
        </mxCell>
        <mxCell id="X8f6CpPXcMIXnC8pIXMU-131" style="edgeStyle=orthogonalEdgeStyle;rounded=0;orthogonalLoop=1;jettySize=auto;html=1;entryX=0.243;entryY=0.125;entryDx=0;entryDy=0;entryPerimeter=0;" parent="X8f6CpPXcMIXnC8pIXMU-4" source="X8f6CpPXcMIXnC8pIXMU-127" target="X8f6CpPXcMIXnC8pIXMU-104" edge="1">
          <mxGeometry relative="1" as="geometry">
            <Array as="points">
              <mxPoint x="216" y="430" />
              <mxPoint x="127" y="430" />
            </Array>
          </mxGeometry>
        </mxCell>
        <mxCell id="X8f6CpPXcMIXnC8pIXMU-132" style="edgeStyle=orthogonalEdgeStyle;rounded=0;orthogonalLoop=1;jettySize=auto;html=1;exitX=0.5;exitY=1;exitDx=0;exitDy=0;exitPerimeter=0;" parent="X8f6CpPXcMIXnC8pIXMU-4" source="X8f6CpPXcMIXnC8pIXMU-127" target="X8f6CpPXcMIXnC8pIXMU-85" edge="1">
          <mxGeometry relative="1" as="geometry">
            <Array as="points">
              <mxPoint x="216" y="430" />
              <mxPoint x="295" y="430" />
            </Array>
          </mxGeometry>
        </mxCell>
        <mxCell id="X8f6CpPXcMIXnC8pIXMU-127" value="Internal Application LB with private DNS name" style="outlineConnect=0;dashed=0;verticalLabelPosition=bottom;verticalAlign=top;align=center;html=1;shape=mxgraph.aws3.application_load_balancer;fillColor=#F58536;gradientColor=none;" parent="X8f6CpPXcMIXnC8pIXMU-4" vertex="1">
          <mxGeometry x="181.25" y="280" width="69" height="72" as="geometry" />
        </mxCell>
        <mxCell id="X8f6CpPXcMIXnC8pIXMU-129" value="" style="rounded=1;arcSize=10;dashed=1;strokeColor=#ff0000;fillColor=none;gradientColor=none;dashPattern=8 4;strokeWidth=2;" parent="X8f6CpPXcMIXnC8pIXMU-4" vertex="1">
          <mxGeometry x="48.5" y="270" width="323" height="130" as="geometry" />
        </mxCell>
        <mxCell id="X8f6CpPXcMIXnC8pIXMU-133" value="sg-pvt-alb-in Allow traffic from VPC in port 8083 TCP" style="text;html=1;strokeColor=none;fillColor=none;align=center;verticalAlign=middle;whiteSpace=wrap;rounded=0;" parent="X8f6CpPXcMIXnC8pIXMU-4" vertex="1">
          <mxGeometry x="57" y="240" width="323" height="30" as="geometry" />
        </mxCell>
        <mxCell id="X8f6CpPXcMIXnC8pIXMU-168" value="4" style="rounded=1;whiteSpace=wrap;html=1;fillColor=#007CBD;strokeColor=none;fontColor=#FFFFFF;fontStyle=1;fontSize=22;labelBackgroundColor=none;" parent="X8f6CpPXcMIXnC8pIXMU-4" vertex="1">
          <mxGeometry x="269.25" y="290" width="40" height="38" as="geometry" />
        </mxCell>
        <mxCell id="X8f6CpPXcMIXnC8pIXMU-177" value="8" style="rounded=1;whiteSpace=wrap;html=1;fillColor=#007CBD;strokeColor=none;fontColor=#FFFFFF;fontStyle=1;fontSize=22;labelBackgroundColor=none;" parent="X8f6CpPXcMIXnC8pIXMU-4" vertex="1">
          <mxGeometry x="257" y="20" width="40" height="38" as="geometry" />
        </mxCell>
        <mxCell id="X8f6CpPXcMIXnC8pIXMU-31" value="Transit gateway" style="sketch=0;points=[[0,0,0],[0.25,0,0],[0.5,0,0],[0.75,0,0],[1,0,0],[0,1,0],[0.25,1,0],[0.5,1,0],[0.75,1,0],[1,1,0],[0,0.25,0],[0,0.5,0],[0,0.75,0],[1,0.25,0],[1,0.5,0],[1,0.75,0]];outlineConnect=0;fontColor=#232F3E;gradientColor=#945DF2;gradientDirection=north;fillColor=#5A30B5;strokeColor=#ffffff;dashed=0;verticalLabelPosition=top;verticalAlign=bottom;align=center;html=1;fontSize=12;fontStyle=0;aspect=fixed;shape=mxgraph.aws4.resourceIcon;resIcon=mxgraph.aws4.transit_gateway;labelPosition=center;" parent="X8f6CpPXcMIXnC8pIXMU-3" vertex="1">
          <mxGeometry x="470" y="185" width="82" height="82" as="geometry" />
        </mxCell>
        <mxCell id="X8f6CpPXcMIXnC8pIXMU-81" value="VPN Gateway" style="outlineConnect=0;dashed=0;verticalLabelPosition=bottom;verticalAlign=top;align=center;html=1;shape=mxgraph.aws3.vpn_gateway;fillColor=#F58536;gradientColor=none;" parent="X8f6CpPXcMIXnC8pIXMU-3" vertex="1">
          <mxGeometry x="476.5" y="330" width="69" height="72" as="geometry" />
        </mxCell>
        <mxCell id="X8f6CpPXcMIXnC8pIXMU-5" value="us-east-1" style="points=[[0,0],[0.25,0],[0.5,0],[0.75,0],[1,0],[1,0.25],[1,0.5],[1,0.75],[1,1],[0.75,1],[0.5,1],[0.25,1],[0,1],[0,0.75],[0,0.5],[0,0.25]];outlineConnect=0;gradientColor=none;html=1;whiteSpace=wrap;fontSize=12;fontStyle=0;container=1;pointerEvents=0;collapsible=0;recursiveResize=0;shape=mxgraph.aws4.group;grIcon=mxgraph.aws4.group_region;strokeColor=#147EBA;fillColor=none;verticalAlign=top;align=left;spacingLeft=30;fontColor=#147EBA;dashed=1;" parent="X8f6CpPXcMIXnC8pIXMU-3" vertex="1">
          <mxGeometry x="577" y="40" width="413" height="1080" as="geometry" />
        </mxCell>
        <mxCell id="X8f6CpPXcMIXnC8pIXMU-26" value="Private subnet" style="points=[[0,0],[0.25,0],[0.5,0],[0.75,0],[1,0],[1,0.25],[1,0.5],[1,0.75],[1,1],[0.75,1],[0.5,1],[0.25,1],[0,1],[0,0.75],[0,0.5],[0,0.25]];outlineConnect=0;gradientColor=none;html=1;whiteSpace=wrap;fontSize=12;fontStyle=0;container=1;pointerEvents=0;collapsible=0;recursiveResize=0;shape=mxgraph.aws4.group;grIcon=mxgraph.aws4.group_security_group;grStroke=0;strokeColor=#147EBA;fillColor=#E6F2F8;verticalAlign=top;align=left;spacingLeft=30;fontColor=#147EBA;dashed=0;" parent="X8f6CpPXcMIXnC8pIXMU-5" vertex="1">
          <mxGeometry x="231.5" y="200" width="148.5" height="400" as="geometry" />
        </mxCell>
        <mxCell id="X8f6CpPXcMIXnC8pIXMU-12" value="AZ us-east-1b" style="fillColor=none;strokeColor=#147EBA;dashed=1;verticalAlign=top;fontStyle=0;fontColor=#147EBA;" parent="X8f6CpPXcMIXnC8pIXMU-5" vertex="1">
          <mxGeometry x="221.5" y="170" width="170" height="870" as="geometry" />
        </mxCell>
        <mxCell id="X8f6CpPXcMIXnC8pIXMU-18" value="Private subnet" style="points=[[0,0],[0.25,0],[0.5,0],[0.75,0],[1,0],[1,0.25],[1,0.5],[1,0.75],[1,1],[0.75,1],[0.5,1],[0.25,1],[0,1],[0,0.75],[0,0.5],[0,0.25]];outlineConnect=0;gradientColor=none;html=1;whiteSpace=wrap;fontSize=12;fontStyle=0;container=1;pointerEvents=0;collapsible=0;recursiveResize=0;shape=mxgraph.aws4.group;grIcon=mxgraph.aws4.group_security_group;grStroke=0;strokeColor=#147EBA;fillColor=#E6F2F8;verticalAlign=top;align=left;spacingLeft=30;fontColor=#147EBA;dashed=0;" parent="X8f6CpPXcMIXnC8pIXMU-5" vertex="1">
          <mxGeometry x="31.5" y="200" width="148.5" height="400" as="geometry" />
        </mxCell>
        <mxCell id="X8f6CpPXcMIXnC8pIXMU-11" value="AZ us-east-1a" style="fillColor=none;strokeColor=#147EBA;dashed=1;verticalAlign=top;fontStyle=0;fontColor=#147EBA;" parent="X8f6CpPXcMIXnC8pIXMU-5" vertex="1">
          <mxGeometry x="21.5" y="170" width="170" height="870" as="geometry" />
        </mxCell>
        <mxCell id="X8f6CpPXcMIXnC8pIXMU-125" value="" style="rounded=1;arcSize=10;dashed=1;strokeColor=#ff0000;fillColor=none;gradientColor=none;dashPattern=8 4;strokeWidth=2;" parent="X8f6CpPXcMIXnC8pIXMU-5" vertex="1">
          <mxGeometry x="43.5" y="500" width="323" height="80" as="geometry" />
        </mxCell>
        <mxCell id="X8f6CpPXcMIXnC8pIXMU-7" value="ECR" style="sketch=0;points=[[0,0,0],[0.25,0,0],[0.5,0,0],[0.75,0,0],[1,0,0],[0,1,0],[0.25,1,0],[0.5,1,0],[0.75,1,0],[1,1,0],[0,0.25,0],[0,0.5,0],[0,0.75,0],[1,0.25,0],[1,0.5,0],[1,0.75,0]];outlineConnect=0;fontColor=#232F3E;gradientColor=#F78E04;gradientDirection=north;fillColor=#D05C17;strokeColor=#ffffff;dashed=0;verticalLabelPosition=bottom;verticalAlign=top;align=center;html=1;fontSize=12;fontStyle=0;aspect=fixed;shape=mxgraph.aws4.resourceIcon;resIcon=mxgraph.aws4.ecr;" parent="X8f6CpPXcMIXnC8pIXMU-5" vertex="1">
          <mxGeometry x="317" y="20" width="78" height="78" as="geometry" />
        </mxCell>
        <mxCell id="X8f6CpPXcMIXnC8pIXMU-16" value="VPC" style="points=[[0,0],[0.25,0],[0.5,0],[0.75,0],[1,0],[1,0.25],[1,0.5],[1,0.75],[1,1],[0.75,1],[0.5,1],[0.25,1],[0,1],[0,0.75],[0,0.5],[0,0.25]];outlineConnect=0;gradientColor=none;html=1;whiteSpace=wrap;fontSize=12;fontStyle=0;container=1;pointerEvents=0;collapsible=0;recursiveResize=0;shape=mxgraph.aws4.group;grIcon=mxgraph.aws4.group_vpc;strokeColor=#248814;fillColor=none;verticalAlign=top;align=left;spacingLeft=30;fontColor=#AAB7B8;dashed=0;" parent="X8f6CpPXcMIXnC8pIXMU-5" vertex="1">
          <mxGeometry x="15" y="120" width="380" height="940" as="geometry" />
        </mxCell>
        <mxCell id="X8f6CpPXcMIXnC8pIXMU-42" value="RDS Read Replica" style="outlineConnect=0;dashed=0;verticalLabelPosition=bottom;verticalAlign=top;align=center;html=1;shape=mxgraph.aws3.rds_db_instance_read_replica;fillColor=#2E73B8;gradientColor=none;" parent="X8f6CpPXcMIXnC8pIXMU-16" vertex="1">
          <mxGeometry x="165.25" y="541.75" width="49.5" height="66" as="geometry" />
        </mxCell>
        <mxCell id="X8f6CpPXcMIXnC8pIXMU-101" value="" style="rounded=1;arcSize=10;dashed=1;strokeColor=#ff0000;fillColor=none;gradientColor=none;dashPattern=8 4;strokeWidth=2;" parent="X8f6CpPXcMIXnC8pIXMU-16" vertex="1">
          <mxGeometry x="28.5" y="500" width="323" height="149.5" as="geometry" />
        </mxCell>
        <mxCell id="X8f6CpPXcMIXnC8pIXMU-135" value="sg-rds-in - Allow inbound from all region&#39;s VPC in port 5432&lt;br&gt;Deny egress to 0.0.0.0/0" style="text;html=1;strokeColor=none;fillColor=none;align=center;verticalAlign=middle;whiteSpace=wrap;rounded=0;" parent="X8f6CpPXcMIXnC8pIXMU-16" vertex="1">
          <mxGeometry x="28.5" y="510" width="323" height="30" as="geometry" />
        </mxCell>
        <mxCell id="X8f6CpPXcMIXnC8pIXMU-126" value="sg-api-in - Allow inbound from private subnets in port range 5000-5100&lt;br&gt;Deny egress to 0.0.0.0/0" style="text;html=1;strokeColor=none;fillColor=none;align=center;verticalAlign=middle;whiteSpace=wrap;rounded=0;" parent="X8f6CpPXcMIXnC8pIXMU-16" vertex="1">
          <mxGeometry x="28.5" y="340" width="323" height="30" as="geometry" />
        </mxCell>
        <mxCell id="X8f6CpPXcMIXnC8pIXMU-151" value="sg-pvt-alb-in Allow traffic from VPC in port 8083 TCP" style="text;html=1;strokeColor=none;fillColor=none;align=center;verticalAlign=middle;whiteSpace=wrap;rounded=0;" parent="X8f6CpPXcMIXnC8pIXMU-16" vertex="1">
          <mxGeometry x="28.5" y="110" width="323" height="30" as="geometry" />
        </mxCell>
        <mxCell id="X8f6CpPXcMIXnC8pIXMU-136" value="" style="rounded=1;arcSize=10;dashed=1;strokeColor=#ff0000;fillColor=none;gradientColor=none;dashPattern=8 4;strokeWidth=2;" parent="X8f6CpPXcMIXnC8pIXMU-16" vertex="1">
          <mxGeometry x="28.5" y="140" width="323" height="130" as="geometry" />
        </mxCell>
        <mxCell id="X8f6CpPXcMIXnC8pIXMU-155" value="Internal application LB with private DNS name" style="outlineConnect=0;dashed=0;verticalLabelPosition=bottom;verticalAlign=top;align=center;html=1;shape=mxgraph.aws3.application_load_balancer;fillColor=#F58534;gradientColor=none;" parent="X8f6CpPXcMIXnC8pIXMU-16" vertex="1">
          <mxGeometry x="148" y="152" width="69" height="72" as="geometry" />
        </mxCell>
        <mxCell id="X8f6CpPXcMIXnC8pIXMU-169" value="4" style="rounded=1;whiteSpace=wrap;html=1;fillColor=#007CBD;strokeColor=none;fontColor=#FFFFFF;fontStyle=1;fontSize=22;labelBackgroundColor=none;" parent="X8f6CpPXcMIXnC8pIXMU-16" vertex="1">
          <mxGeometry x="232" y="152" width="40" height="38" as="geometry" />
        </mxCell>
        <mxCell id="X8f6CpPXcMIXnC8pIXMU-174" value="6" style="rounded=1;whiteSpace=wrap;html=1;fillColor=#007CBD;strokeColor=none;fontColor=#FFFFFF;fontStyle=1;fontSize=22;labelBackgroundColor=none;" parent="X8f6CpPXcMIXnC8pIXMU-16" vertex="1">
          <mxGeometry x="108" y="555.75" width="40" height="38" as="geometry" />
        </mxCell>
        <mxCell id="X8f6CpPXcMIXnC8pIXMU-87" value="ECS task definition&lt;br&gt;Running FastAPI" style="sketch=0;outlineConnect=0;fontColor=#232F3E;gradientColor=none;fillColor=#D45B07;strokeColor=none;dashed=0;verticalLabelPosition=bottom;verticalAlign=top;align=center;html=1;fontSize=12;fontStyle=0;aspect=fixed;pointerEvents=1;shape=mxgraph.aws4.container_2;" parent="X8f6CpPXcMIXnC8pIXMU-5" vertex="1">
          <mxGeometry x="282.5" y="510" width="48" height="31" as="geometry" />
        </mxCell>
        <mxCell id="X8f6CpPXcMIXnC8pIXMU-90" value="" style="rounded=1;arcSize=10;dashed=1;strokeColor=#ff0000;fillColor=none;gradientColor=none;dashPattern=8 4;strokeWidth=2;" parent="X8f6CpPXcMIXnC8pIXMU-5" vertex="1">
          <mxGeometry x="45" y="790" width="333" height="159.5" as="geometry" />
        </mxCell>
        <mxCell id="X8f6CpPXcMIXnC8pIXMU-77" value="Redis cluster&lt;br&gt;Multi-AZ shard distribution" style="sketch=0;outlineConnect=0;fontColor=#232F3E;gradientColor=none;fillColor=#2E27AD;strokeColor=none;dashed=0;verticalLabelPosition=bottom;verticalAlign=top;align=center;html=1;fontSize=12;fontStyle=0;aspect=fixed;pointerEvents=1;shape=mxgraph.aws4.elasticache_for_redis;" parent="X8f6CpPXcMIXnC8pIXMU-5" vertex="1">
          <mxGeometry x="78" y="835.25" width="78" height="69" as="geometry" />
        </mxCell>
        <mxCell id="X8f6CpPXcMIXnC8pIXMU-78" value="Redis cluster&lt;br&gt;Multi-AZ shard distribution" style="sketch=0;outlineConnect=0;fontColor=#232F3E;gradientColor=none;fillColor=#2E27AD;strokeColor=none;dashed=0;verticalLabelPosition=bottom;verticalAlign=top;align=center;html=1;fontSize=12;fontStyle=0;aspect=fixed;pointerEvents=1;shape=mxgraph.aws4.elasticache_for_redis;" parent="X8f6CpPXcMIXnC8pIXMU-5" vertex="1">
          <mxGeometry x="252.5" y="835.25" width="78" height="69" as="geometry" />
        </mxCell>
        <mxCell id="X8f6CpPXcMIXnC8pIXMU-91" value="sg-redis-in - Allow inbound from VPC range to 6379 TCP&lt;br&gt;Deny egress to 0.0.0.0/0" style="text;html=1;strokeColor=none;fillColor=none;align=center;verticalAlign=middle;whiteSpace=wrap;rounded=0;" parent="X8f6CpPXcMIXnC8pIXMU-5" vertex="1">
          <mxGeometry x="55" y="800" width="323" height="30" as="geometry" />
        </mxCell>
        <mxCell id="X8f6CpPXcMIXnC8pIXMU-86" value="ECS task definition&lt;br&gt;Running FastAPI" style="sketch=0;outlineConnect=0;fontColor=#232F3E;gradientColor=none;fillColor=#D45B07;strokeColor=none;dashed=0;verticalLabelPosition=bottom;verticalAlign=top;align=center;html=1;fontSize=12;fontStyle=0;aspect=fixed;pointerEvents=1;shape=mxgraph.aws4.container_2;" parent="X8f6CpPXcMIXnC8pIXMU-5" vertex="1">
          <mxGeometry x="81.75" y="510" width="48" height="31" as="geometry" />
        </mxCell>
        <mxCell id="X8f6CpPXcMIXnC8pIXMU-158" style="edgeStyle=orthogonalEdgeStyle;rounded=0;orthogonalLoop=1;jettySize=auto;html=1;exitX=0.5;exitY=1;exitDx=0;exitDy=0;exitPerimeter=0;" parent="X8f6CpPXcMIXnC8pIXMU-5" source="X8f6CpPXcMIXnC8pIXMU-155" target="X8f6CpPXcMIXnC8pIXMU-86" edge="1">
          <mxGeometry relative="1" as="geometry" />
        </mxCell>
        <mxCell id="X8f6CpPXcMIXnC8pIXMU-160" style="edgeStyle=orthogonalEdgeStyle;rounded=0;orthogonalLoop=1;jettySize=auto;html=1;exitX=0.5;exitY=1;exitDx=0;exitDy=0;exitPerimeter=0;" parent="X8f6CpPXcMIXnC8pIXMU-5" source="X8f6CpPXcMIXnC8pIXMU-155" target="X8f6CpPXcMIXnC8pIXMU-87" edge="1">
          <mxGeometry relative="1" as="geometry" />
        </mxCell>
        <mxCell id="X8f6CpPXcMIXnC8pIXMU-171" value="5" style="rounded=1;whiteSpace=wrap;html=1;fillColor=#007CBD;strokeColor=none;fontColor=#FFFFFF;fontStyle=1;fontSize=22;labelBackgroundColor=none;" parent="X8f6CpPXcMIXnC8pIXMU-5" vertex="1">
          <mxGeometry x="180" y="520" width="40" height="38" as="geometry" />
        </mxCell>
        <mxCell id="X8f6CpPXcMIXnC8pIXMU-176" value="7" style="rounded=1;whiteSpace=wrap;html=1;fillColor=#007CBD;strokeColor=none;fontColor=#FFFFFF;fontStyle=1;fontSize=22;labelBackgroundColor=none;" parent="X8f6CpPXcMIXnC8pIXMU-5" vertex="1">
          <mxGeometry x="186.5" y="850" width="40" height="38" as="geometry" />
        </mxCell>
        <mxCell id="X8f6CpPXcMIXnC8pIXMU-178" value="8" style="rounded=1;whiteSpace=wrap;html=1;fillColor=#007CBD;strokeColor=none;fontColor=#FFFFFF;fontStyle=1;fontSize=22;labelBackgroundColor=none;" parent="X8f6CpPXcMIXnC8pIXMU-5" vertex="1">
          <mxGeometry x="267" y="20" width="40" height="38" as="geometry" />
        </mxCell>
        <mxCell id="X8f6CpPXcMIXnC8pIXMU-33" style="edgeStyle=orthogonalEdgeStyle;rounded=0;orthogonalLoop=1;jettySize=auto;html=1;entryX=1.003;entryY=0.042;entryDx=0;entryDy=0;entryPerimeter=0;" parent="X8f6CpPXcMIXnC8pIXMU-3" source="X8f6CpPXcMIXnC8pIXMU-31" target="X8f6CpPXcMIXnC8pIXMU-14" edge="1">
          <mxGeometry relative="1" as="geometry">
            <Array as="points">
              <mxPoint x="454" y="200" />
              <mxPoint x="454" y="200" />
            </Array>
          </mxGeometry>
        </mxCell>
        <mxCell id="X8f6CpPXcMIXnC8pIXMU-36" style="edgeStyle=orthogonalEdgeStyle;rounded=0;orthogonalLoop=1;jettySize=auto;html=1;exitX=1;exitY=0.25;exitDx=0;exitDy=0;exitPerimeter=0;" parent="X8f6CpPXcMIXnC8pIXMU-3" source="X8f6CpPXcMIXnC8pIXMU-31" target="X8f6CpPXcMIXnC8pIXMU-16" edge="1">
          <mxGeometry relative="1" as="geometry">
            <Array as="points">
              <mxPoint x="552" y="200" />
            </Array>
          </mxGeometry>
        </mxCell>
        <mxCell id="X8f6CpPXcMIXnC8pIXMU-82" style="edgeStyle=orthogonalEdgeStyle;rounded=0;orthogonalLoop=1;jettySize=auto;html=1;" parent="X8f6CpPXcMIXnC8pIXMU-3" source="X8f6CpPXcMIXnC8pIXMU-31" target="X8f6CpPXcMIXnC8pIXMU-81" edge="1">
          <mxGeometry relative="1" as="geometry" />
        </mxCell>
        <mxCell id="X8f6CpPXcMIXnC8pIXMU-83" style="edgeStyle=orthogonalEdgeStyle;rounded=0;orthogonalLoop=1;jettySize=auto;html=1;entryX=0.5;entryY=1;entryDx=0;entryDy=0;entryPerimeter=0;" parent="X8f6CpPXcMIXnC8pIXMU-3" source="X8f6CpPXcMIXnC8pIXMU-81" target="X8f6CpPXcMIXnC8pIXMU-31" edge="1">
          <mxGeometry relative="1" as="geometry" />
        </mxCell>
        <mxCell id="X8f6CpPXcMIXnC8pIXMU-128" value="Route 53 private zone" style="sketch=0;outlineConnect=0;fontColor=#232F3E;gradientColor=none;fillColor=#4D27AA;strokeColor=none;dashed=0;verticalLabelPosition=bottom;verticalAlign=top;align=center;html=1;fontSize=12;fontStyle=0;aspect=fixed;pointerEvents=1;shape=mxgraph.aws4.hosted_zone;" parent="X8f6CpPXcMIXnC8pIXMU-3" vertex="1">
          <mxGeometry x="474" y="460" width="78" height="77" as="geometry" />
        </mxCell>
        <mxCell id="X8f6CpPXcMIXnC8pIXMU-161" value="1" style="rounded=1;whiteSpace=wrap;html=1;fillColor=#007CBD;strokeColor=none;fontColor=#FFFFFF;fontStyle=1;fontSize=22;labelBackgroundColor=none;" parent="X8f6CpPXcMIXnC8pIXMU-3" vertex="1">
          <mxGeometry x="491" y="120" width="40" height="38" as="geometry" />
        </mxCell>
        <mxCell id="X8f6CpPXcMIXnC8pIXMU-163" value="2" style="rounded=1;whiteSpace=wrap;html=1;fillColor=#007CBD;strokeColor=none;fontColor=#FFFFFF;fontStyle=1;fontSize=22;labelBackgroundColor=none;" parent="X8f6CpPXcMIXnC8pIXMU-3" vertex="1">
          <mxGeometry x="531" y="292" width="40" height="38" as="geometry" />
        </mxCell>
        <mxCell id="X8f6CpPXcMIXnC8pIXMU-167" value="3" style="rounded=1;whiteSpace=wrap;html=1;fillColor=#007CBD;strokeColor=none;fontColor=#FFFFFF;fontStyle=1;fontSize=22;labelBackgroundColor=none;" parent="X8f6CpPXcMIXnC8pIXMU-3" vertex="1">
          <mxGeometry x="488" y="561" width="40" height="38" as="geometry" />
        </mxCell>
        <mxCell id="X8f6CpPXcMIXnC8pIXMU-84" style="edgeStyle=orthogonalEdgeStyle;rounded=0;orthogonalLoop=1;jettySize=auto;html=1;entryX=0;entryY=0.5;entryDx=0;entryDy=0;entryPerimeter=0;" parent="1" source="X8f6CpPXcMIXnC8pIXMU-79" target="X8f6CpPXcMIXnC8pIXMU-80" edge="1">
          <mxGeometry relative="1" as="geometry" />
        </mxCell>
        <mxCell id="X8f6CpPXcMIXnC8pIXMU-79" value="" style="sketch=0;outlineConnect=0;fontColor=#232F3E;gradientColor=none;fillColor=#232F3D;strokeColor=none;dashed=0;verticalLabelPosition=bottom;verticalAlign=top;align=center;html=1;fontSize=12;fontStyle=0;aspect=fixed;pointerEvents=1;shape=mxgraph.aws4.office_building;" parent="1" vertex="1">
          <mxGeometry x="-900" y="626" width="50" height="78" as="geometry" />
        </mxCell>
        <mxCell id="X8f6CpPXcMIXnC8pIXMU-80" value="VPN Gateway&lt;br&gt;(duplicated for&lt;br&gt;diagram simplicity)" style="outlineConnect=0;dashed=0;verticalLabelPosition=bottom;verticalAlign=top;align=center;html=1;shape=mxgraph.aws3.vpn_gateway;fillColor=#F58536;gradientColor=none;" parent="1" vertex="1">
          <mxGeometry x="-790" y="629" width="69" height="72" as="geometry" />
        </mxCell>
        <mxCell id="X8f6CpPXcMIXnC8pIXMU-164" value="2" style="rounded=1;whiteSpace=wrap;html=1;fillColor=#007CBD;strokeColor=none;fontColor=#FFFFFF;fontStyle=1;fontSize=22;labelBackgroundColor=none;" parent="1" vertex="1">
          <mxGeometry x="-750" y="579" width="40" height="38" as="geometry" />
        </mxCell>
      </root>
    </mxGraphModel>
  </diagram>
</mxfile>
